<?xml version="1.0" encoding="UTF-8"?>
<svg id="_레이어_2" data-name="레이어 2" xmlns="http://www.w3.org/2000/svg" viewBox="0 0 170.3 173.47">
  <defs>
    <style>
      .a1-1 {
        fill: #2dd4bf;
      }

      .a1-1, .a1-2 {
        stroke-width: 0px;
      }

      .a1-2 {
        fill: #e879f9;
      }
    </style>
  </defs>
  <g id="_레이어_1-2" data-name="레이어 1">
    <g>
      <path class="a1-1" d="M170.05,135.65c0,5.16-1.07,9.77-3.17,13.82-2.14,4.04-5.05,7.24-8.75,9.64l-6.36,6.36c-5.18,5.16-11.82,7.75-19.89,7.75-3.72,0-8.22-.73-13.53-2.19-5.3-1.45-10.4-3.67-15.3-6.66-4.91-2.98-9.11-6.75-12.62-11.33-3.52-4.58-5.28-9.97-5.28-16.2-1.86,1.06-4.71,1.59-8.54,1.59h-3.38c-.64,2.53-1.49,4.97-2.55,7.32l-2.15-.95c1.11-2.47,1.98-5.08,2.61-7.86.98-4.45,1.49-8.72,1.49-12.83v-2.38c0-1.45-.07-2.85-.2-4.17.13.92.49,1.91,1.09,2.97.59,1.07,1.42,2.06,2.49,2.98,1.05.94,2.44,1.7,4.17,2.3,1.72.58,3.84.89,6.36.89,2.25,0,4.08-.2,5.47-.6s2.53-.95,3.38-1.68c.86-.73,1.52-1.54,1.99-2.4.46-.85,1.02-1.74,1.69-2.68-.54,1.86-1.02,3.51-1.49,4.96-.47,1.48-.7,2.93-.7,4.39,0,5.57,1.7,10.4,5.07,14.51,3.38,4.11,7.42,7.53,12.13,10.25,4.71,2.71,9.61,4.74,14.71,6.05,5.11,1.32,9.45,1.99,13.03,1.99s7.11-.63,10.24-1.88c3.1-1.26,5.82-3.03,8.15-5.27,2.32-2.25,4.14-4.97,5.47-8.16s1.99-6.68,1.99-10.53c0-3.19-.5-6.9-1.5-11.14-.99-4.23-2.48-8.28-4.47-12.13-1.99-3.84-4.45-7.09-7.36-9.74-2.91-2.66-6.23-3.98-9.94-3.98-.27,0-1.13-.16-2.58-.49-1.46-.34-3.11-.73-4.97-1.19-1.86-.47-3.64-.98-5.37-1.49-1.72-.54-3.05-.94-3.98-1.2,1.47.13,3.18.32,5.17.6,1.99.26,3.92.48,5.76.69,1.86.2,3.51.39,4.99.6,1.45.2,2.38.29,2.78.29.81,0,1.56-.73,2.27-2.2l1.82.29c-.41.88-.84,1.66-1.31,2.32,3.3,1.05,6.3,3.1,8.95,6.16,2.64,3.04,4.87,6.49,6.65,10.34,1.8,3.84,3.16,7.79,4.08,11.83.92,4.05,1.39,7.52,1.39,10.44Z"/>
      <path class="a1-2" d="M166.17,124.51c1,4.24,1.5,7.95,1.5,11.14,0,3.85-.66,7.34-1.99,10.53s-3.15,5.91-5.47,8.16c-2.33,2.24-5.05,4.01-8.15,5.27-3.13,1.25-6.54,1.88-10.24,1.88s-7.92-.67-13.03-1.99c-5.1-1.31-10-3.34-14.71-6.05-4.71-2.72-8.75-6.14-12.13-10.25-3.37-4.11-5.07-8.94-5.07-14.51,0-1.46.23-2.91.7-4.39.47-1.45.95-3.1,1.49-4.96-.67.94-1.23,1.83-1.69,2.68-.47.86-1.13,1.67-1.99,2.4-.85.73-1.99,1.28-3.38,1.68s-3.22.6-5.47.6c-2.52,0-4.64-.31-6.36-.89-1.73-.6-3.12-1.36-4.17-2.3-1.07-.92-1.9-1.91-2.49-2.98-.6-1.06-.96-2.05-1.09-2.97.13,1.32.2,2.72.2,4.17v2.38c0,4.11-.51,8.38-1.49,12.83-.63,2.78-1.5,5.39-2.61,7.86-.66,1.47-1.42,2.9-2.26,4.26-2.27,3.66-5.21,6.64-8.85,8.95-3.64,2.33-8.06,3.48-13.22,3.48-4.11,0-8.09-.8-11.93-2.38-3.85-1.6-7.26-3.79-10.24-6.57-2.99-2.78-5.41-6.05-7.27-9.84-1.86-3.77-2.78-7.78-2.78-12.02,0-4.51.6-8.95,1.8-13.33,1.18-4.37,2.78-8.35,4.77-11.93.66-1.16,1.42-2.28,2.29-3.36.52-.65,1.08-1.29,1.67-1.91,1.61-1.65,3.19-3.14,4.78-4.47,1.6-1.33,2.96-2.49,4.08-3.48,1.13-1,1.69-1.7,1.69-2.09-.79-4.77-1.19-9.67-1.19-14.7,0-8.89,1.42-17.54,4.27-25.96,2.85-8.41,7.52-15.47,14.01-21.18,2.27-1.84,5.05-3.87,8.37-6.05,3.3-2.2,6.08-4.48,8.35-6.86,2.91-3.19,5.63-5.65,8.13-7.36,2.53-1.72,4.99-2.98,7.37-3.79,2.39-.79,4.67-1.24,6.86-1.39,2.18-.13,4.4-.19,6.66-.19,7.69,0,14.18,1.66,19.49,4.96,5.29,3.32,9.01,8.56,11.13,15.71.4,1.2.86,2.92,1.39,5.18.53,2.25,1.16,4.57,1.89,6.96.73,2.38,1.56,4.56,2.48,6.55.94,1.99,1.92,3.26,2.99,3.79,1.46,1.05,3.17,2.57,5.16,4.56s3.89,4.27,5.67,6.86c1.79,2.59,3.31,5.44,4.58,8.56,1.26,3.11,1.89,6.26,1.89,9.44,0,.79-.18,2.33-.5,4.58-.33,2.24-.76,4.64-1.3,7.15-.53,2.52-1.19,4.74-1.99,6.66-.1.24-.2.47-.3.68-.71,1.47-1.46,2.2-2.27,2.2-.4,0-1.33-.09-2.78-.29-1.48-.21-3.13-.4-4.99-.6-1.84-.21-3.77-.43-5.76-.69-1.99-.28-3.7-.47-5.17-.6.93.26,2.26.66,3.98,1.2,1.73.51,3.51,1.02,5.37,1.49,1.86.46,3.51.85,4.97,1.19,1.45.33,2.31.49,2.58.49,3.71,0,7.03,1.32,9.94,3.98,2.91,2.65,5.37,5.9,7.36,9.74,1.99,3.85,3.48,7.9,4.47,12.13ZM111.59,88.72c-2.38-1.58-4.53-2.91-6.46-3.98-1.92-1.05-3.82-2.59-5.66-4.58-3.72-2.63-6.54-6.08-8.45-10.34-1.92-4.24-2.89-8.6-2.89-13.12,0-1.05.06-2.34.21-3.87.13-1.52.32-3.01.6-4.48-.67,1.6-1.2,3.53-1.61,5.78-.38,2.25-.79,4.46-1.18,6.65-.4,2.2-.74,4.29-1,6.26-.26,1.99-.6,3.59-.99,4.77-1.47,3.98-3.69,7.24-6.66,9.74-2.98,2.53-6.46,4.71-10.44,6.57,4.24-1.05,8.25-1.99,12.02-2.78,3.79-.79,8.06-1.2,12.83-1.2,3.45,0,6.83.41,10.15,1.2,3.3.79,6.49,1.93,9.53,3.38Z"/>
      <path class="a1-1" d="M154.94,75.2c0,.66-.13,1.92-.39,3.78-.28,1.86-.66,3.87-1.2,6.07-.53,2.18-1.16,4.37-1.89,6.55-.37,1.1-.75,2.08-1.17,2.96l-1.82-.29c.1-.21.2-.44.3-.68.8-1.92,1.46-4.14,1.99-6.66.54-2.51.97-4.91,1.3-7.15.32-2.25.5-3.79.5-4.58,0-3.18-.63-6.33-1.89-9.44-1.27-3.12-2.79-5.97-4.58-8.56-1.78-2.59-3.68-4.87-5.67-6.86s-3.7-3.51-5.16-4.56c-1.07-.53-2.05-1.8-2.99-3.79-.92-1.99-1.75-4.17-2.48-6.55-.73-2.39-1.36-4.71-1.89-6.96-.53-2.26-.99-3.98-1.39-5.18-2.12-7.15-5.84-12.39-11.13-15.71-5.31-3.3-11.8-4.96-19.49-4.96-2.26,0-4.48.06-6.66.19-2.19.15-4.47.6-6.86,1.39-2.38.81-4.84,2.07-7.37,3.79-2.5,1.71-5.22,4.17-8.13,7.36-2.27,2.38-5.05,4.66-8.35,6.86-3.32,2.18-6.1,4.21-8.37,6.05-6.49,5.71-11.16,12.77-14.01,21.18-2.85,8.42-4.27,17.07-4.27,25.96,0,5.03.4,9.93,1.19,14.7,0,.39-.56,1.09-1.69,2.09-1.12.99-2.48,2.15-4.08,3.48-1.59,1.33-3.17,2.82-4.78,4.47-.59.62-1.15,1.26-1.67,1.91l-1.81-1.52c.63-.75,1.27-1.52,1.9-2.27-.39-2.12-.63-4.24-.7-6.38-.06-2.1-.09-4.3-.09-6.55,0-8.75,1.29-17.17,3.88-25.26,2.57-8.07,6.86-15.11,12.81-21.06,3.19-3.58,5.57-6.23,7.17-7.97,1.59-1.71,3.11-3.23,4.57-4.56.53-.4,1.06-.79,1.58-1.2.54-.4,1.13-.79,1.8-1.19,2.25-1.59,4.5-3.17,6.76-4.78,2.25-1.58,4.37-3.44,6.36-5.56,3.04-3.3,5.94-5.89,8.66-7.75,2.7-1.86,5.32-3.21,7.84-4.08,2.51-.86,4.94-1.36,7.25-1.49,2.33-.13,4.68-.19,7.07-.19,8.22,0,15.18,1.74,20.88,5.26,5.69,3.51,9.67,9.04,11.92,16.6.41,1.32.86,3.12,1.39,5.37.54,2.26,1.14,4.48,1.8,6.67.66,2.18,1.33,4.17,1.99,5.95.66,1.8,1.31,2.9,1.99,3.28,1.59,1.2,3.48,2.88,5.66,5.09,2.19,2.18,4.28,4.69,6.27,7.54,1.99,2.86,3.67,5.9,5.06,9.15,1.39,3.26,2.09,6.59,2.09,10.04Z"/>
      <path class="a1-1" d="M105.13,84.74c1.93,1.07,4.08,2.4,6.46,3.98-3.04-1.45-6.23-2.59-9.53-3.38-3.32-.79-6.7-1.2-10.15-1.2-4.77,0-9.04.41-12.83,1.2-3.77.79-7.78,1.73-12.02,2.78,3.98-1.86,7.46-4.04,10.44-6.57,2.97-2.5,5.19-5.76,6.66-9.74.39-1.18.73-2.78.99-4.77.26-1.97.6-4.06,1-6.26.39-2.19.8-4.4,1.18-6.65.41-2.25.94-4.18,1.61-5.78-.28,1.47-.47,2.96-.6,4.48-.15,1.53-.21,2.82-.21,3.87,0,4.52.97,8.88,2.89,13.12,1.91,4.26,4.73,7.71,8.45,10.34,1.84,1.99,3.74,3.53,5.66,4.58Z"/>
      <path class="a1-1" d="M68.53,144.8l2.15.95c-.71,1.58-1.51,3.12-2.42,4.61-2.27,3.72-5.18,6.76-8.76,9.14l-6.16,6.16c-2.25,2.25-4.97,4.08-8.16,5.47-3.17,1.39-6.82,2.09-10.93,2.09-4.37,0-8.58-.86-12.63-2.59-4.04-1.72-7.65-4.03-10.84-6.96-3.17-2.91-5.72-6.36-7.65-10.34-1.93-3.96-2.88-8.2-2.88-12.72s.6-9.2,1.8-13.72c1.18-4.49,2.84-8.6,4.96-12.33.8-1.45,1.72-2.78,2.79-3.96,1.05-1.2,2.12-2.33,3.18-3.38l3.97-3.98c.66-.93,1.33-1.8,1.99-2.59.03-.04.06-.07.09-.11l1.81,1.52c-.87,1.08-1.63,2.2-2.29,3.36-1.99,3.58-3.59,7.56-4.77,11.93-1.2,4.38-1.8,8.82-1.8,13.33,0,4.24.92,8.25,2.78,12.02,1.86,3.79,4.28,7.06,7.27,9.84,2.98,2.78,6.39,4.97,10.24,6.57,3.84,1.58,7.82,2.38,11.93,2.38,5.16,0,9.58-1.15,13.22-3.48,3.64-2.31,6.58-5.29,8.85-8.95.84-1.36,1.6-2.79,2.26-4.26Z"/>
    </g>
  </g>
</svg>