<?xml version="1.0" encoding="UTF-8"?>
<svg id="_레이어_2" data-name="레이어 2" xmlns="http://www.w3.org/2000/svg" viewBox="0 0 267.29 224.99">
  <defs>
    <style>
      .a2-1 {
        fill: #e879f9;
        stroke-width: 0px;
      }
    </style>
  </defs>
  <g id="_레이어_1-2" data-name="레이어 1">
    <path class="a2-1" d="M261.45,197.84c-19.64,18.1-39.18,27.15-58.56,27.15-16.04,0-36.46-5.87-61.31-17.65-24.81-11.76-44.86-17.65-60.11-17.65-5.43,0-12.56,1.29-21.34,3.88-8.81,2.59-15.53,3.87-20.17,3.87-8.02,0-15.91-1.8-23.68-5.43-10.86-4.39-16.29-10.72-16.29-19,0-10.09,6.22-26.38,18.63-48.88,10.61-19.38,19.92-33.6,27.94-42.66,6.47-8.79,18.09-23.79,34.91-45C102.41,12.15,119.74,0,133.44,0c7.51,0,18.5,4.99,32.99,14.93,14.49,9.96,24.18,18.96,29.11,26.96,47.83,77.33,71.75,122.07,71.75,134.23,0,2.84-.66,6.91-1.96,12.22s-2.59,8.48-3.88,9.5ZM212.52,102.41c-5.43-11.38-15.28-28.7-29.52-51.98-5.97-7.75-14.4-15.71-25.25-23.85-10.89-8.14-19.04-12.23-24.5-12.23-11.14,0-29.9,16.53-56.32,49.55-20.2,25.29-32.39,42.19-36.52,50.7-5.18,9.8-10.39,19.62-15.56,29.42-5.97,12.12-8.93,22.45-8.93,30.95,3.88,2.07,7.13,4.53,9.72,7.36,1.29,1.56,3.88,2.32,7.77,2.32,2.08,0,11.14-3.8,27.21-11.44,16.04-7.62,29.77-11.44,41.16-11.44,18.66,0,35.89,7.89,51.68,23.66,8.3,8.29,14.9,13.84,19.82,16.68,7.26,4.15,15.94,6.2,26.04,6.2,7.23,0,16.57-2.19,27.97-6.58,15.03-5.7,22.54-12.93,22.54-21.73,0-10.34-12.44-36.19-37.31-77.58ZM154.78,116.38c0,6.2-2.05,12.41-6.19,18.63-4.67,7.23-9.98,10.86-15.91,10.86-7.77,0-13.45-4.78-17.08-14.36-2.05-5.68-3.09-11.24-3.09-16.67,0-5.7,1.67-11.51,5.05-17.46,4.39-7.77,9.94-11.65,16.67-11.65s12.03,4.28,15.91,12.8c3.09,6.47,4.64,12.42,4.64,17.85Z"/>
  </g>
</svg>