<?xml version="1.0" encoding="UTF-8"?>
<svg id="_레이어_2" data-name="레이어 2" xmlns="http://www.w3.org/2000/svg" viewBox="0 0 320.82 89.74">
  <defs>
    <style>
      .cls-1 {
        stroke-width: 0px;
      }
    </style>
  </defs>
  <g id="_레이어_1-2" data-name="레이어 1">
    <g>
      <path class="cls-1" d="M100.9,79.26c-7.58,6.99-15.12,10.48-22.6,10.48-6.19,0-14.07-2.27-23.66-6.81-9.58-4.54-17.31-6.81-23.2-6.81-2.1,0-4.85.5-8.24,1.5-3.4,1-5.99,1.49-7.78,1.49-3.09,0-6.14-.69-9.14-2.1-4.19-1.69-6.29-4.14-6.29-7.33,0-3.89,2.4-10.18,7.19-18.87,4.09-7.48,7.69-12.97,10.78-16.47,2.5-3.39,6.98-9.18,13.47-17.37,8.08-9.38,14.77-14.07,20.05-14.07,2.9,0,7.14,1.92,12.73,5.76,5.59,3.84,9.33,7.32,11.23,10.4,18.46,29.84,27.69,47.11,27.69,51.8,0,1.1-.26,2.67-.76,4.71s-1,3.27-1.5,3.67ZM82.02,42.43c-2.1-4.39-5.9-11.07-11.39-20.06-2.3-2.99-5.56-6.06-9.75-9.2-4.2-3.14-7.35-4.72-9.45-4.72-4.3,0-11.54,6.38-21.73,19.12-7.8,9.76-12.5,16.28-14.1,19.57-2,3.78-4.01,7.57-6.01,11.35-2.3,4.68-3.45,8.66-3.45,11.95,1.5.8,2.75,1.75,3.75,2.84.5.6,1.5.9,3,.9.8,0,4.3-1.47,10.5-4.42,6.19-2.94,11.49-4.42,15.89-4.42,7.2,0,13.85,3.05,19.94,9.13,3.2,3.2,5.75,5.34,7.65,6.44,2.8,1.6,6.15,2.39,10.05,2.39,2.79,0,6.4-.85,10.79-2.54,5.8-2.2,8.7-4.99,8.7-8.39,0-3.99-4.8-13.97-14.4-29.94ZM59.73,47.82c0,2.39-.79,4.79-2.39,7.19-1.8,2.79-3.85,4.19-6.14,4.19-3,0-5.19-1.85-6.59-5.54-.79-2.19-1.19-4.34-1.19-6.43,0-2.2.65-4.44,1.95-6.74,1.69-3,3.84-4.5,6.43-4.5s4.64,1.65,6.14,4.94c1.19,2.5,1.79,4.79,1.79,6.89Z"/>
      <path class="cls-1" d="M168.34.74h3.33l.35.18h.53c.29.23.53.58.7,1.05-.29.44-.58,1.01-.88,1.71l-.35,1.09-.35.31-.18.48-.18.44-.18.48-.18.61c-.09.44-.26.95-.53,1.53-.09.47-.26.99-.53,1.58l-.88,4.03v.44l-.18.48-.18.61c-.03.55-.15,1.12-.35,1.71v.61l-.18.61c.03.7-.09,1.53-.35,2.5l-.18,2.19-.18.74c.06.61,0,1.34-.18,2.19.03.67-.03,1.55-.18,2.63v1.71l-.18,2.01v10.51c.09.47.15,1.04.18,1.71v2.5l.18,1.23v2.32c0,.7.12,1.58.35,2.63v.66c-.06.5,0,1.05.18,1.66l.18,2.19.18.61c-.09.82.03,1.75.35,2.8v1.23l.35,1.23v.48l.18.79v.74c.06.64.23,1.37.53,2.19l.35,2.5.18.74.7,2.5v.44l.18.48.18.61.35,2.01c-.32,3.09-2.36,5.01-6.13,5.74h-.18.18-.35.18-.35.18-.35.18-.35.18-.35.18-.35.18-.35.18-.35.18-.35.18-.35.18-.35.18-.53l-.18.18.18-.18-.18.18c-5.63-.15-9.78-2.06-12.43-5.74.12-1.28.47-2.83,1.05-4.64l.18-.48c.2-.29.38-.7.53-1.23l.53-1.58.18-.44.18-.61.18-.79.35-.48v-.61l.35-.44.18-.79.18-.92.35-.66.18-.92.7-2.45.18-.31.18-1.09.18-.48.18-.44.18-1.09.18-.92c.35-.88.58-1.91.7-3.11l.18-.48.18-.92.18-.61c.09-.44.15-.96.18-1.58l.18-1.23.18-.44.18-.66.35-3.06c-.06-.41,0-.83.18-1.27-.03-.85.03-1.87.18-3.06v-3.72l-.18-.66-.35-3.98-.35-1.09-.18-.48c.03-.09-.03-.19-.18-.31v-.61l-1.05-1.88-.18-.31-.35-.13-.18-.48c-.47-.35-1.11-.66-1.93-.92-.82-.03-1.69.07-2.63.31-3.91,2.71-6.83,6.44-8.76,11.16-.55.7-1.02,1.62-1.4,2.76l-.18.35-.18.31-.18.31v.44l-.88,1.71-.18.48-.88,2.63-.18.31c-.18.44-.29.95-.35,1.53l-.35.48-.18.48-.18.61-.18.61-.18-5.12c-.09-.44-.15-.95-.18-1.53,0-.15-.06-.31-.18-.48-.09-6.13-2.42-11.54-7-16.24-.64-.32-1.52-.69-2.63-1.09-1.43-.12-2.95.15-4.55.79-.76.5-1.46,1.21-2.1,2.15-1.05,1.55-1.63,3.36-1.75,5.43l-.18.31v4.33c.03.44.15,1.07.35,1.88v.92l.18.44v.66c0,.15.06.29.18.44-.03.55.09,1.12.35,1.71,0,.58.12,1.26.35,2.01,0,.15.06.31.18.48-.06.41.06.88.35,1.4.03.55.15,1.17.35,1.84l.35,1.23.35,1.27c.03.44.2.95.53,1.53.09.76.32,1.63.7,2.63-.03.12.03.22.18.31.06.35.18.72.35,1.09.06.64.29,1.37.7,2.19.09.67.32,1.49.7,2.45l.35,1.23.18.48c-.03.12.03.22.18.31.03.53.2,1.09.53,1.71.06.5.23,1.12.53,1.88v.44c.12.53.35,1.15.7,1.88-.06.41.06.86.35,1.36v.66c1.11,6.6-2.51,10.2-10.86,10.81-6.48.38-11.03-1.17-13.66-4.64v-1.4l.88-1.53c.18-.44.41-.9.7-1.4l.18-.79c.29-.35.53-.8.7-1.36l.18-.48.18-.92.35-.48v-.48l.35-1.05c.2-.47.38-1.09.53-1.88l.18-.92.18-.48c.26-.79.44-1.77.53-2.93l.18-.31v-.92c.29-.9.47-2.04.53-3.41l.18-1.09v-.44l.18-1.88c.12-.7.18-1.52.18-2.45l.18-2.01v-9.63c-.15-.61-.2-1.33-.18-2.15.06-.58,0-1.26-.18-2.01v-1.27l-.18-.74c.06-.58,0-1.26-.18-2.01v-.79l-.18-.61c.06-.82-.06-1.75-.35-2.8,0-.61-.06-1.08-.18-1.4v-1.05l-.53-2.8-.18-.48c.03-.79-.15-1.66-.53-2.63,0-.53-.12-1.09-.35-1.71v-.44c-.26-.61-.44-1.34-.53-2.19l-.18-.31-.35-1.09-.35-1.23c.03-.12-.03-.22-.18-.31-.15-.7-.44-1.58-.88-2.63-.5-1.49-1.43-2.89-2.8-4.2,0-.44.12-.85.35-1.23l1.58-.31.35-.18c12.17.06,23.73,3.58,34.67,10.55.44.7,1.14,1.42,2.1,2.15l.7.96.18.44.35.48c4.35-9.28,13.28-15.22,26.79-17.82Z"/>
      <path class="cls-1" d="M223.23,76.34c0,2.35-.74,4.44-2.22,6.26-1.47,1.82-3.35,2.73-5.63,2.73-3.49,0-5.99-1.59-7.51-4.78-1.21,3.71-3.42,5.57-6.6,5.57-1.97,0-3.64-.69-5-2.05-1.37-1.37-2.2-3.04-2.51-5.01-1.29,3.56-3.49,5.35-6.59,5.35-2.28,0-4.14-.88-5.58-2.62-1.44-1.74-2.16-3.8-2.16-6.14,0-2.13.69-4.12,2.05-5.98,1.37-1.85,3.07-2.79,5.12-2.79s3.78.7,5.18,2.11c1.41,1.4,2.26,3.17,2.56,5.29,1.21-3.56,3.33-5.34,6.37-5.34s5.46,1.56,6.82,4.66c1.29-3.79,3.71-5.69,7.29-5.69,2.27,0,4.24.83,5.92,2.5,1.67,1.68,2.5,3.64,2.5,5.92ZM223.45,7.52c0,1.77-.69,3.33-2.1,4.69-1.41,1.34-2.97,2.02-4.72,2.02-1.9,0-3.53-.55-4.89-1.65-1.37-1.1-2.2-2.56-2.51-4.38-.15,1.9-.96,3.47-2.44,4.72-1.47,1.25-3.13,1.87-4.94,1.87-1.37,0-2.58-.22-3.64-.68,1.89,1.73,2.84,3.72,2.84,5.98,0,2.48-.85,4.54-2.56,6.16-1.7,1.61-3.85,2.43-6.43,2.43-2.35,0-4.47-.81-6.37-2.45-1.9-1.63-2.84-3.58-2.84-5.85,0-2.58.85-4.69,2.56-6.31,1.7-1.63,3.85-2.45,6.43-2.45,1.52,0,2.96.34,4.32,1.03-1.59-1.52-2.39-3.42-2.39-5.69,0-1.9.78-3.53,2.33-4.9,1.56-1.36,3.28-2.05,5.18-2.05s3.72.61,5.24,1.82c1.51,1.21,2.43,2.77,2.72,4.66.16-1.81.9-3.33,2.22-4.59,1.32-1.26,2.86-1.89,4.61-1.89,2.12,0,3.88.71,5.29,2.14s2.1,3.22,2.1,5.38ZM207.52,35.61c0,2.13-.8,3.91-2.39,5.35-1.59,1.44-3.45,2.16-5.57,2.16s-3.85-.87-5.18-2.61c-1.33-1.75-1.99-3.69-1.99-5.81s.78-4.02,2.33-5.46c1.56-1.44,3.43-2.16,5.63-2.16,2.05,0,3.75.87,5.12,2.61,1.36,1.75,2.05,3.72,2.05,5.92ZM222.09,45.4c0,2.2-.83,4.11-2.5,5.74-1.68,1.64-3.61,2.45-5.81,2.45-2.43,0-4.42-.92-5.97-2.73-1.56-1.82-2.33-3.98-2.33-6.49,0-2.19.83-4.13,2.5-5.8s3.56-2.51,5.69-2.51c2.5,0,4.53.92,6.08,2.73,1.56,1.82,2.33,4.03,2.33,6.6ZM233.12,60.76c0,2.66-.87,4.96-2.62,6.94-1.74,1.97-3.91,2.96-6.48,2.96s-4.74-1.01-6.49-3.02c-1.74-2.01-2.61-4.31-2.61-6.88s.85-4.99,2.56-7c1.71-2.01,3.85-3.02,6.44-3.02s4.85,1.01,6.59,3.02c1.75,2.01,2.62,4.34,2.62,7ZM233.47,12.52c0,1.52-.54,2.77-1.59,3.75-1.06.99-2.31,1.48-3.76,1.48s-2.61-.61-3.53-1.82c-.91-1.21-1.36-2.54-1.36-3.98s.53-2.65,1.59-3.64c1.06-.98,2.31-1.48,3.75-1.48s2.62.59,3.53,1.77c.92,1.18,1.37,2.48,1.37,3.93Z"/>
      <path class="cls-1" d="M239.64,85.83V4.66h69.58v11.6h11.6v34.79h-23.19v11.6h11.6v11.6h11.6v11.6h-34.79v-11.6h-11.6v-11.6h-11.6v23.19h-23.19ZM262.84,51.04h23.19v-11.6h11.6v-23.19h-34.79v34.79Z"/>
    </g>
  </g>
</svg>