<?xml version="1.0" encoding="UTF-8"?>
<svg id="_레이어_2" data-name="레이어 2" xmlns="http://www.w3.org/2000/svg" viewBox="0 0 969.39 249.27">
  <defs>
    <style>
      .cls-1 {
        fill: #4ade80;
      }

      .cls-1, .cls-2, .cls-3, .cls-4 {
        stroke-width: 0px;
      }

      .cls-2 {
        fill: #38bdf8;
      }

      .cls-3 {
        fill: #a78bfa;
      }

      .cls-4 {
        fill: #e879f9;
      }
    </style>
  </defs>
  <g id="_레이어_1-2" data-name="레이어 1">
    <path class="cls-4" d="M289.67,219.19c-21.75,20.06-43.4,30.08-64.88,30.08-17.77,0-40.4-6.51-67.92-19.55-27.49-13.03-49.7-19.55-66.59-19.55-6.02,0-13.92,1.43-23.64,4.3-9.76,2.87-17.21,4.28-22.35,4.28-8.88,0-17.63-1.99-26.23-6.02-12.03-4.86-18.05-11.87-18.05-21.06,0-11.17,6.89-29.22,20.64-54.16,11.75-21.47,22.07-37.23,30.95-47.27,7.17-9.74,20.04-26.35,38.68-49.86C113.46,13.47,132.66,0,147.84,0c8.32,0,20.5,5.53,36.55,16.54,16.05,11.03,26.79,21,32.25,29.87,52.99,85.67,79.5,135.25,79.5,148.72,0,3.15-.73,7.66-2.17,13.54-1.43,5.88-2.87,9.39-4.3,10.53ZM235.46,113.46c-6.02-12.61-16.93-31.79-32.7-57.59-6.61-8.59-15.95-17.4-27.98-26.42-12.07-9.02-21.09-13.55-27.14-13.55-12.35,0-33.12,18.31-62.4,54.89-22.38,28.02-35.88,46.74-40.47,56.17-5.74,10.86-11.51,21.74-17.24,32.6-6.61,13.43-9.9,24.87-9.9,34.29,4.3,2.29,7.9,5.02,10.77,8.15,1.43,1.73,4.3,2.57,8.6,2.57,2.31,0,12.35-4.21,30.15-12.68,17.77-8.45,32.98-12.68,45.61-12.68,20.67,0,39.77,8.74,57.25,26.21,9.2,9.18,16.51,15.34,21.96,18.48,8.04,4.6,17.66,6.87,28.85,6.87,8.01,0,18.36-2.43,30.99-7.29,16.65-6.31,24.97-14.32,24.97-24.08,0-11.45-13.78-40.1-41.34-85.95ZM171.49,128.94c0,6.87-2.27,13.75-6.86,20.64-5.18,8.01-11.05,12.03-17.63,12.03-8.6,0-14.9-5.3-18.92-15.91-2.27-6.3-3.43-12.45-3.43-18.47,0-6.31,1.85-12.75,5.6-19.34,4.86-8.6,11.02-12.91,18.47-12.91s13.33,4.74,17.63,14.18c3.43,7.17,5.14,13.76,5.14,19.78Z"/>
    <path class="cls-3" d="M481.41,6.85h9.38l.99.49h1.48c.82.66,1.48,1.65,1.97,2.96-.82,1.23-1.65,2.84-2.47,4.81l-.99,3.08-.99.86-.49,1.36-.49,1.23-.49,1.36-.49,1.73c-.25,1.23-.74,2.67-1.48,4.32-.25,1.32-.74,2.8-1.48,4.44l-2.47,11.35v1.23l-.49,1.36-.49,1.73c-.08,1.56-.41,3.17-.99,4.81v1.73l-.49,1.73c.08,1.97-.25,4.32-.99,7.03l-.49,6.17-.49,2.1c.16,1.73,0,3.78-.49,6.17.08,1.89-.08,4.36-.49,7.4v4.81l-.49,5.68v29.61c.25,1.32.41,2.92.49,4.81v7.03l.49,3.45v6.54c0,1.97.33,4.44.99,7.4v1.85c-.16,1.4,0,2.96.49,4.69l.49,6.17.49,1.73c-.25,2.3.08,4.94.99,7.9v3.45l.99,3.45v1.36l.49,2.22v2.1c.16,1.81.66,3.87,1.48,6.17l.99,7.03.49,2.1,1.97,7.03v1.23l.49,1.36.49,1.73.99,5.68c-.9,8.72-6.66,14.11-17.27,16.16h-.49.49-.99.49-.99.49-.99.49-.99.49-.99.49-.99.49-.99.49-.99.49-.99.49-.99.49-.99.49-1.48l-.49.49.49-.49-.49.49c-15.88-.41-27.56-5.8-35.04-16.16.33-3.62,1.32-7.98,2.96-13.08l.49-1.36c.58-.82,1.07-1.97,1.48-3.45l1.48-4.44.49-1.23.49-1.73.49-2.22.99-1.36v-1.73l.99-1.23.49-2.22.49-2.59.99-1.85.49-2.59,1.97-6.91.49-.86.49-3.08.49-1.36.49-1.23.49-3.08.49-2.59c.99-2.47,1.65-5.39,1.97-8.76l.49-1.36.49-2.59.49-1.73c.25-1.23.41-2.71.49-4.44l.49-3.45.49-1.23.49-1.85.99-8.64c-.16-1.15,0-2.34.49-3.58-.08-2.39.08-5.26.49-8.64v-10.49l-.49-1.85-.99-11.23-.99-3.08-.49-1.36c.08-.25-.08-.53-.49-.86v-1.73l-2.96-5.31-.49-.86-.99-.37-.49-1.36c-1.32-.99-3.13-1.85-5.43-2.59-2.3-.08-4.77.21-7.4.86-11.02,7.65-19.25,18.14-24.68,31.46-1.56,1.97-2.88,4.57-3.95,7.77l-.49.99-.49.86-.49.86v1.23l-2.47,4.81-.49,1.36-2.47,7.4-.49.86c-.49,1.23-.82,2.67-.99,4.32l-.99,1.36-.49,1.36-.49,1.73-.49,1.73-.49-14.44c-.25-1.23-.41-2.67-.49-4.32,0-.41-.16-.86-.49-1.36-.25-17.27-6.83-32.53-19.74-45.78-1.81-.9-4.28-1.93-7.4-3.08-4.03-.33-8.31.41-12.83,2.22-2.14,1.4-4.11,3.41-5.92,6.05-2.96,4.36-4.61,9.46-4.94,15.3l-.49.86v12.22c.08,1.23.41,3,.99,5.31v2.59l.49,1.23v1.85c0,.41.16.82.49,1.23-.08,1.56.25,3.17.99,4.81,0,1.65.33,3.54.99,5.68,0,.41.16.86.49,1.36-.16,1.15.16,2.47.99,3.95.08,1.56.41,3.29.99,5.18l.99,3.45.99,3.58c.08,1.23.58,2.67,1.48,4.32.25,2.14.9,4.61,1.97,7.4-.08.33.08.62.49.86.16.99.49,2.02.99,3.08.16,1.81.82,3.87,1.97,6.17.25,1.89.9,4.2,1.97,6.91l.99,3.45.49,1.36c-.08.33.08.62.49.86.08,1.48.58,3.08,1.48,4.81.16,1.4.66,3.17,1.48,5.31v1.23c.33,1.48.99,3.25,1.97,5.31-.16,1.15.16,2.43.99,3.83v1.85c3.13,18.59-7.07,28.75-30.6,30.48-18.26,1.07-31.09-3.29-38.5-13.08v-3.95l2.47-4.32c.49-1.23,1.15-2.55,1.97-3.95l.49-2.22c.82-.99,1.48-2.26,1.97-3.83l.49-1.36.49-2.59.99-1.36v-1.36l.99-2.96c.58-1.32,1.07-3.08,1.48-5.31l.49-2.59.49-1.36c.74-2.22,1.23-4.98,1.48-8.27l.49-.86v-2.59c.82-2.55,1.32-5.76,1.48-9.62l.49-3.08v-1.23l.49-5.31c.33-1.97.49-4.28.49-6.91l.49-5.68v-27.15c-.41-1.73-.58-3.74-.49-6.05.16-1.65,0-3.54-.49-5.68v-3.58l-.49-2.1c.16-1.65,0-3.54-.49-5.68v-2.22l-.49-1.73c.16-2.3-.16-4.94-.99-7.9,0-1.73-.16-3.04-.49-3.95v-2.96l-1.48-7.9-.49-1.36c.08-2.22-.41-4.69-1.48-7.4,0-1.48-.33-3.08-.99-4.81v-1.23c-.74-1.73-1.23-3.78-1.48-6.17l-.49-.86-.99-3.08-.99-3.45c.08-.33-.08-.62-.49-.86-.41-1.97-1.23-4.44-2.47-7.4-1.4-4.2-4.03-8.14-7.9-11.85,0-1.23.33-2.39.99-3.45l4.44-.86.99-.49c34.3.16,66.88,10.08,97.72,29.74,1.23,1.97,3.21,3.99,5.92,6.05l1.97,2.71.49,1.23.99,1.36c12.26-26.16,37.43-42.9,75.51-50.22Z"/>
    <path class="cls-2" d="M600.32,227.93c-3.47,5.72-8.35,9.69-14.65,11.93-6.27,2.26-12.18,1.69-17.72-1.68-8.48-5.16-12.21-12.72-11.2-22.7-8.43,7.23-16.54,8.5-24.28,3.8-4.79-2.91-7.83-7.04-9.13-12.36-1.31-5.36-.87-10.64,1.3-15.88-8.39,6.76-16.39,7.85-23.93,3.27-5.54-3.36-8.76-8.25-9.7-14.62-.92-6.35.36-12.41,3.82-18.11,3.15-5.18,7.75-9,13.81-11.52,6.07-2.48,11.59-2.23,16.56.79s8.14,7.29,9.46,12.78c1.36,5.48.81,11.03-1.58,16.64,8.21-6.87,15.99-8.06,23.38-3.58s10.98,11.85,9.71,21.4c8.72-7.3,17.42-8.33,26.11-3.06,5.51,3.35,9.08,8.29,10.69,14.82,1.58,6.54.7,12.54-2.66,18.07ZM702.51,60.97c-2.61,4.3-6.61,7.08-12.03,8.28-5.4,1.18-10.21.52-14.46-2.07-4.61-2.8-7.77-6.54-9.45-11.23-1.7-4.7-1.57-9.49.37-14.35-3.16,4.39-7.47,7.02-12.92,7.87-5.42.86-10.37-.08-14.78-2.76-3.33-2.02-5.95-4.36-7.85-7.02,2.03,7,1.41,13.25-1.93,18.74-3.67,6.03-8.77,9.77-15.33,11.18-6.52,1.4-12.95.21-19.2-3.59-5.72-3.47-9.67-8.59-11.86-15.37-2.21-6.76-1.62-12.91,1.73-18.42,3.82-6.28,8.99-10.13,15.54-11.57,6.55-1.44,12.99-.27,19.24,3.53,3.69,2.24,6.7,5.21,8.99,8.89-1.63-6.04-.76-11.83,2.59-17.35,2.8-4.61,7.1-7.43,12.91-8.46,5.79-1.01,10.99-.13,15.6,2.67,4.79,2.91,8.14,6.98,10.04,12.17,1.88,5.18,1.81,10.31-.26,15.34,3.05-4.16,7.11-6.78,12.19-7.88,5.08-1.11,9.74-.37,14,2.22,5.15,3.13,8.38,7.46,9.69,13.01s.35,10.94-2.84,16.18ZM622.31,105.73c-3.15,5.18-7.71,8.32-13.71,9.48-5.99,1.14-11.58.14-16.74-2.99-5.15-3.13-8.08-7.81-8.72-13.99-.66-6.22.6-11.9,3.74-17.05,3.26-5.36,7.83-8.62,13.74-9.83,5.9-1.19,11.51-.18,16.87,3.07,4.97,3.02,7.83,7.65,8.59,13.91.72,6.26-.52,12.07-3.77,17.4ZM643.26,151.03c-3.26,5.36-8.1,8.76-14.56,10.26-6.49,1.51-12.4.63-17.74-2.61-5.9-3.58-9.38-8.75-10.48-15.46-1.09-6.73.21-13.12,3.92-19.22,3.24-5.33,8.13-8.81,14.64-10.4,6.51-1.59,12.37-.83,17.55,2.31,6.08,3.69,9.65,8.92,10.75,15.62,1.09,6.73-.28,13.24-4.08,19.49ZM647.39,204.67c-3.93,6.46-9.45,10.78-16.61,12.99-7.14,2.22-13.87,1.43-20.13-2.37s-10.03-9.46-11.32-16.92c-1.26-7.46.01-14.32,3.82-20.58,3.93-6.46,9.44-10.87,16.55-13.24,7.13-2.35,13.82-1.65,20.1,2.17,6.44,3.91,10.3,9.62,11.57,17.07,1.29,7.47-.05,14.43-3.97,20.89ZM719.48,87.92c-2.24,3.69-5.39,5.94-9.41,6.76-4.05.84-7.81.18-11.33-1.95s-5.44-5.34-5.88-9.64c-.41-4.29.44-8.18,2.57-11.69s5.19-5.66,9.25-6.49c4.04-.81,7.81-.18,11.3,1.94,3.51,2.13,5.49,5.31,5.96,9.51.49,4.21-.33,8.06-2.47,11.57Z"/>
    <path class="cls-1" d="M732.63,243.02V6.26h202.94v33.82h33.82v101.47h-67.65v33.82h33.82v33.82h33.82v33.82h-101.47v-33.82h-33.82v-33.82h-33.82v67.65h-67.65ZM800.28,141.55h67.65v-33.82h33.82V40.09h-101.47v101.47Z"/>
  </g>
</svg>