<?xml version="1.0" encoding="UTF-8"?>
<svg id="_레이어_2" data-name="레이어 2" xmlns="http://www.w3.org/2000/svg" viewBox="0 0 491.34 469.07">
  <defs>
    <style>
      .cls-1 {
        fill: #4ade80;
      }

      .cls-1, .cls-2, .cls-3, .cls-4 {
        stroke-width: 0px;
      }

      .cls-2 {
        fill: #38bdf8;
      }

      .cls-3 {
        fill: #a78bfa;
      }

      .cls-4 {
        fill: #e879f9;
      }
    </style>
  </defs>
  <g id="_레이어_1-2" data-name="레이어 1">
    <path class="cls-4" d="M261.45,197.84c-19.64,18.1-39.18,27.15-58.56,27.15-16.04,0-36.46-5.87-61.31-17.65-24.81-11.76-44.86-17.65-60.11-17.65-5.43,0-12.56,1.29-21.34,3.88-8.81,2.59-15.53,3.87-20.17,3.87-8.02,0-15.91-1.8-23.68-5.43-10.86-4.39-16.29-10.72-16.29-19,0-10.09,6.22-26.38,18.63-48.88,10.61-19.38,19.92-33.6,27.94-42.66,6.47-8.79,18.09-23.79,34.91-45C102.41,12.15,119.74,0,133.44,0c7.51,0,18.5,4.99,32.99,14.93,14.49,9.96,24.18,18.96,29.11,26.96,47.83,77.33,71.75,122.07,71.75,134.23,0,2.84-.66,6.91-1.96,12.22s-2.59,8.48-3.88,9.5ZM212.52,102.41c-5.43-11.38-15.28-28.7-29.52-51.98-5.97-7.75-14.4-15.71-25.25-23.85-10.89-8.14-19.04-12.23-24.5-12.23-11.14,0-29.9,16.53-56.32,49.55-20.2,25.29-32.39,42.19-36.52,50.7-5.18,9.8-10.39,19.62-15.56,29.42-5.97,12.12-8.93,22.45-8.93,30.95,3.88,2.07,7.13,4.53,9.72,7.36,1.29,1.56,3.88,2.32,7.77,2.32,2.08,0,11.14-3.8,27.21-11.44,16.04-7.62,29.77-11.44,41.16-11.44,18.66,0,35.89,7.89,51.68,23.66,8.3,8.29,14.9,13.84,19.82,16.68,7.26,4.15,15.94,6.2,26.04,6.2,7.23,0,16.57-2.19,27.97-6.58,15.03-5.7,22.54-12.93,22.54-21.73,0-10.34-12.44-36.19-37.31-77.58ZM154.78,116.38c0,6.2-2.05,12.41-6.19,18.63-4.67,7.23-9.98,10.86-15.91,10.86-7.77,0-13.45-4.78-17.08-14.36-2.05-5.68-3.09-11.24-3.09-16.67,0-5.7,1.67-11.51,5.05-17.46,4.39-7.77,9.94-11.65,16.67-11.65s12.03,4.28,15.91,12.8c3.09,6.47,4.64,12.42,4.64,17.85Z"/>
    <path class="cls-3" d="M432.69,4.11h8.62l.91.45h1.36c.76.61,1.36,1.51,1.82,2.72-.76,1.13-1.51,2.61-2.27,4.42l-.91,2.84-.91.79-.45,1.25-.45,1.13-.45,1.25-.45,1.59c-.23,1.13-.68,2.46-1.36,3.97-.23,1.21-.68,2.57-1.36,4.08l-2.27,10.44v1.13l-.45,1.25-.45,1.59c-.08,1.44-.38,2.91-.91,4.42v1.59l-.45,1.59c.08,1.82-.23,3.97-.91,6.47l-.45,5.67-.45,1.93c.15,1.59,0,3.48-.45,5.67.08,1.74-.08,4.01-.45,6.81v4.42l-.45,5.22v27.23c.23,1.21.38,2.68.45,4.42v6.47l.45,3.18v6.01c0,1.82.3,4.08.91,6.81v1.7c-.15,1.29,0,2.72.45,4.31l.45,5.67.45,1.59c-.23,2.12.08,4.54.91,7.26v3.18l.91,3.18v1.25l.45,2.04v1.93c.15,1.66.61,3.55,1.36,5.67l.91,6.47.45,1.93,1.82,6.47v1.13l.45,1.25.45,1.59.91,5.22c-.83,8.02-6.13,12.97-15.88,14.86h-.45.45-.91.45-.91.45-.91.45-.91.45-.91.45-.91.45-.91.45-.91.45-.91.45-.91.45-.91.45-1.36l-.45.45.45-.45-.45.45c-14.6-.38-25.33-5.33-32.22-14.86.3-3.33,1.21-7.34,2.72-12.02l.45-1.25c.53-.76.98-1.82,1.36-3.18l1.36-4.08.45-1.13.45-1.59.45-2.04.91-1.25v-1.59l.91-1.13.45-2.04.45-2.38.91-1.7.45-2.38,1.82-6.35.45-.79.45-2.84.45-1.25.45-1.13.45-2.84.45-2.38c.91-2.27,1.51-4.95,1.82-8.05l.45-1.25.45-2.38.45-1.59c.23-1.13.38-2.5.45-4.08l.45-3.18.45-1.13.45-1.7.91-7.94c-.15-1.06,0-2.16.45-3.29-.08-2.19.08-4.84.45-7.94v-9.64l-.45-1.7-.91-10.32-.91-2.84-.45-1.25c.08-.23-.08-.49-.45-.79v-1.59l-2.72-4.88-.45-.79-.91-.34-.45-1.25c-1.21-.91-2.87-1.7-4.99-2.38-2.12-.08-4.39.19-6.81.79-10.13,7.03-17.7,16.68-22.69,28.93-1.44,1.82-2.65,4.2-3.63,7.15l-.45.91-.45.79-.45.79v1.13l-2.27,4.42-.45,1.25-2.27,6.81-.45.79c-.45,1.13-.76,2.46-.91,3.97l-.91,1.25-.45,1.25-.45,1.59-.45,1.59-.45-13.27c-.23-1.13-.38-2.46-.45-3.97,0-.38-.15-.79-.45-1.25-.23-15.88-6.28-29.91-18.15-42.09-1.66-.83-3.93-1.78-6.81-2.84-3.71-.3-7.64.38-11.8,2.04-1.97,1.29-3.78,3.14-5.45,5.56-2.72,4.01-4.24,8.7-4.54,14.07l-.45.79v11.23c.08,1.13.38,2.76.91,4.88v2.38l.45,1.13v1.7c0,.38.15.76.45,1.13-.08,1.44.23,2.91.91,4.42,0,1.51.3,3.25.91,5.22,0,.38.15.79.45,1.25-.15,1.06.15,2.27.91,3.63.08,1.44.38,3.03.91,4.76l.91,3.18.91,3.29c.08,1.13.53,2.46,1.36,3.97.23,1.97.83,4.24,1.82,6.81-.08.3.08.57.45.79.15.91.45,1.85.91,2.84.15,1.66.76,3.55,1.82,5.67.23,1.74.83,3.86,1.82,6.35l.91,3.18.45,1.25c-.08.3.08.57.45.79.08,1.36.53,2.84,1.36,4.42.15,1.29.61,2.91,1.36,4.88v1.13c.3,1.36.91,2.99,1.82,4.88-.15,1.06.15,2.23.91,3.52v1.7c2.87,17.09-6.5,26.43-28.13,28.02-16.79.98-28.59-3.03-35.39-12.02v-3.63l2.27-3.97c.45-1.13,1.06-2.34,1.82-3.63l.45-2.04c.76-.91,1.36-2.08,1.82-3.52l.45-1.25.45-2.38.91-1.25v-1.25l.91-2.72c.53-1.21.98-2.84,1.36-4.88l.45-2.38.45-1.25c.68-2.04,1.13-4.58,1.36-7.6l.45-.79v-2.38c.76-2.34,1.21-5.29,1.36-8.85l.45-2.84v-1.13l.45-4.88c.3-1.82.45-3.93.45-6.35l.45-5.22v-24.96c-.38-1.59-.53-3.44-.45-5.56.15-1.51,0-3.25-.45-5.22v-3.29l-.45-1.93c.15-1.51,0-3.25-.45-5.22v-2.04l-.45-1.59c.15-2.12-.15-4.54-.91-7.26,0-1.59-.15-2.8-.45-3.63v-2.72l-1.36-7.26-.45-1.25c.08-2.04-.38-4.31-1.36-6.81,0-1.36-.3-2.84-.91-4.42v-1.13c-.68-1.59-1.13-3.48-1.36-5.67l-.45-.79-.91-2.84-.91-3.18c.08-.3-.08-.57-.45-.79-.38-1.82-1.13-4.08-2.27-6.81-1.29-3.86-3.71-7.49-7.26-10.89,0-1.13.3-2.19.91-3.18l4.08-.79.91-.45c31.54.15,61.48,9.26,89.84,27.34,1.13,1.82,2.95,3.67,5.45,5.56l1.82,2.5.45,1.13.91,1.25c11.27-24.05,34.41-39.44,69.42-46.17Z"/>
    <path class="cls-2" d="M120.14,447.97c-3.47,5.72-8.35,9.69-14.65,11.93-6.27,2.26-12.18,1.69-17.72-1.68-8.48-5.16-12.21-12.72-11.2-22.7-8.43,7.23-16.54,8.5-24.28,3.8-4.79-2.91-7.83-7.04-9.13-12.36-1.31-5.36-.87-10.64,1.3-15.88-8.39,6.76-16.39,7.85-23.93,3.27-5.54-3.36-8.76-8.25-9.7-14.62-.92-6.35.36-12.41,3.82-18.11,3.15-5.18,7.75-9,13.81-11.52,6.07-2.48,11.59-2.23,16.56.79s8.14,7.29,9.46,12.78c1.36,5.48.81,11.03-1.58,16.64,8.21-6.87,15.99-8.06,23.38-3.58s10.98,11.85,9.71,21.4c8.72-7.3,17.42-8.33,26.11-3.06,5.51,3.35,9.08,8.29,10.69,14.82,1.58,6.54.7,12.54-2.66,18.07ZM222.34,281.02c-2.61,4.3-6.61,7.08-12.03,8.28-5.4,1.18-10.21.52-14.46-2.07-4.61-2.8-7.77-6.54-9.45-11.23-1.7-4.7-1.57-9.49.37-14.35-3.16,4.39-7.47,7.02-12.92,7.87-5.42.86-10.37-.08-14.78-2.76-3.33-2.02-5.95-4.36-7.85-7.02,2.03,7,1.41,13.25-1.93,18.74-3.67,6.03-8.77,9.77-15.33,11.18-6.52,1.4-12.95.21-19.2-3.59-5.72-3.47-9.67-8.59-11.86-15.37-2.21-6.76-1.62-12.91,1.73-18.42,3.82-6.28,8.99-10.13,15.54-11.57,6.55-1.44,12.99-.27,19.24,3.53,3.69,2.24,6.7,5.21,8.99,8.89-1.63-6.04-.76-11.83,2.59-17.35,2.8-4.61,7.1-7.43,12.91-8.46,5.79-1.01,10.99-.13,15.6,2.67,4.79,2.91,8.14,6.98,10.04,12.17,1.88,5.18,1.81,10.31-.26,15.34,3.05-4.16,7.11-6.78,12.19-7.88,5.08-1.11,9.74-.37,14,2.22,5.15,3.13,8.38,7.46,9.69,13.01s.35,10.94-2.84,16.18ZM142.13,325.77c-3.15,5.18-7.71,8.32-13.71,9.48-5.99,1.14-11.58.14-16.74-2.99-5.15-3.13-8.08-7.81-8.72-13.99-.66-6.22.6-11.9,3.74-17.05,3.26-5.36,7.83-8.62,13.74-9.83,5.9-1.19,11.51-.18,16.87,3.07,4.97,3.02,7.83,7.65,8.59,13.91.72,6.26-.52,12.07-3.77,17.4ZM163.08,371.08c-3.26,5.36-8.1,8.76-14.56,10.26-6.49,1.51-12.4.63-17.74-2.61-5.9-3.58-9.38-8.75-10.48-15.46-1.09-6.73.21-13.12,3.92-19.22,3.24-5.33,8.13-8.81,14.64-10.4,6.51-1.59,12.37-.83,17.55,2.31,6.08,3.69,9.65,8.92,10.75,15.62,1.09,6.73-.28,13.24-4.08,19.49ZM167.22,424.72c-3.93,6.46-9.45,10.78-16.61,12.99-7.14,2.22-13.87,1.43-20.13-2.37s-10.03-9.46-11.32-16.92c-1.26-7.46.01-14.32,3.82-20.58,3.93-6.46,9.44-10.87,16.55-13.24,7.13-2.35,13.82-1.65,20.1,2.17,6.44,3.91,10.3,9.62,11.57,17.07,1.29,7.47-.05,14.43-3.97,20.89ZM239.31,307.97c-2.24,3.69-5.39,5.94-9.41,6.76-4.05.84-7.81.18-11.33-1.95s-5.44-5.34-5.88-9.64c-.41-4.29.44-8.18,2.57-11.69s5.19-5.66,9.25-6.49c4.04-.81,7.81-.18,11.3,1.94,3.51,2.13,5.49,5.31,5.96,9.51.49,4.21-.33,8.06-2.47,11.57Z"/>
    <path class="cls-1" d="M254.58,469.07v-236.76h202.94v33.82h33.82v101.47h-67.65v33.82h33.82v33.82h33.82v33.82h-101.47v-33.82h-33.82v-33.82h-33.82v67.65h-67.65ZM322.22,367.6h67.65v-33.82h33.82v-67.65h-101.47v101.47Z"/>
  </g>
</svg>