<?xml version="1.0" encoding="UTF-8"?>
<svg id="_레이어_2" data-name="레이어 2" xmlns="http://www.w3.org/2000/svg" viewBox="0 0 176.95 174.19">
  <defs>
    <style>
      .m1-1 {
        fill: #fb923c;
      }

      .m1-1, .m1-2 {
        stroke-width: 0px;
      }

      .m1-2 {
        fill: #a78bfa;
      }
    </style>
  </defs>
  <g id="_레이어_1-2" data-name="레이어 1">
    <g>
      <path class="m1-1" d="M169.69,30.63c-.58,2.51-1.42,4.71-2.48,6.55,2.25,2.27,4.43,4.71,6.55,7.36s3.19,5.84,3.19,9.55c0,1.86-.4,3.64-1.2,5.37-.79,1.72-1.78,3.3-2.98,4.76-1.2,1.47-2.56,2.86-4.08,4.17-1.52,1.33-3.01,2.59-4.47,3.79l-2.2,2.18c4.9,6.5,8.62,13.46,11.15,20.87,2.51,7.43,3.77,15.05,3.77,22.86,0,3.85-.4,7.77-1.2,11.73-.79,3.98-1.99,7.77-3.58,11.34s-3.58,6.89-5.97,9.93c-2.38,3.06-5.1,5.65-8.14,7.77l-5.37,5.36c-3.06,3.06-6.57,5.47-10.53,7.27-3.98,1.78-8.43,2.69-13.33,2.69-5.57,0-10.44-1.17-14.61-3.48-4.17-2.33-7.62-5.27-10.34-8.85s-4.77-7.52-6.16-11.83c-1.39-4.3-2.09-8.46-2.09-12.43,0-1.99.34-4.45,1-7.36-5.05,3.32-9.95,4.97-14.72,4.97-.66,0-1.36.03-2.09.1-.73.08-1.42-.03-2.09-.29-1.18,3.45-3.04,6.63-5.57,9.55s-5.37,5.5-8.54,7.75l-4.38,4.37c-4.11,4.11-8.8,7.43-14.11,9.95-5.31,2.51-10.27,3.77-14.92,3.77-3.45,0-6.84-.63-10.23-1.88-3.38-1.26-6.44-3.03-9.16-5.27-2.72-2.27-4.9-4.97-6.55-8.16-1.67-3.19-2.49-6.7-2.49-10.53s.73-7.09,2.18-10.15c1.46-3.04,3.32-5.97,5.57-8.75-2.78-2.64-5.06-6.05-6.84-10.23-1.8-4.17-2.69-8.38-2.69-12.64,0-2.25.32-4.6.99-7.05.66-2.44,1.52-4.81,2.59-7.05,1.05-2.25,2.18-4.43,3.38-6.57,1.18-2.12,2.31-4.03,3.38-5.76-.53-1.59-.94-2.75-1.2-3.48-.28-.73-.47-1.29-.6-1.68-.13-.4-.26-.7-.4-.91-.13-.19-.26-.57-.39-1.08-1.07-2.52-2.02-5.05-2.88-7.56-.87-2.52-1.29-5.24-1.29-8.16,0-5.44,1.42-11.04,4.27-16.8,2.85-5.78,7.65-12.04,14.42-18.8,3.83-5.16,8.64-9.43,14.42-12.82C42.44,1.7,48.64,0,55.27,0c3.58,0,7.46.7,11.63,2.09s8.17,3.32,12.02,5.78c3.85,2.44,7.27,5.37,10.24,8.74,2.98,3.38,5.13,7.01,6.46,10.84,1.2-1.46,2.52-2.98,3.98-4.56,1.46-1.6,3.32-3.51,5.57-5.78,1.46-1.84,2.88-3.51,4.27-4.97s2.69-2.78,3.88-3.98c3.45-3.17,7.31-5.32,11.63-6.46,4.3-1.13,8.71-1.7,13.22-1.7,3.17,0,6.65.5,10.44,1.5,3.77.99,7.28,2.44,10.53,4.37s5.97,4.37,8.16,7.36c2.18,2.98,3.28,6.46,3.28,10.44,0,2.12-.31,4.43-.91,6.96Z"/>
      <path class="m1-2" d="M171.08,44.64c2.33,2.59,3.49,5.75,3.49,9.45,0,1.99-.53,3.87-1.6,5.66-1.05,1.8-2.38,3.48-3.98,5.07-1.59,1.6-3.3,3.15-5.16,4.68-1.86,1.52-3.58,2.94-5.18,4.27,5.31,6.36,9.29,13.33,11.94,20.89,2.66,7.54,3.98,15.37,3.98,23.44,0,5.31-.77,10.58-2.3,15.81-1.52,5.24-3.77,9.98-6.76,14.22-2.98,4.24-6.71,7.69-11.23,10.34-4.5,2.66-9.67,3.98-15.5,3.98-5.31,0-9.92-1.13-13.82-3.38-3.91-2.25-7.17-5.08-9.74-8.44-2.59-3.39-4.55-7.14-5.87-11.25-1.33-4.11-1.99-8.01-1.99-11.73,0-1.05.06-2.15.19-3.27.15-1.13.34-2.23.6-3.28,1.2-1.07,2.52-2.5,3.98-4.28,1.46-1.79,2.82-3.68,4.08-5.68,1.26-1.97,2.31-3.89,3.19-5.76.85-1.86,1.27-3.38,1.27-4.57,0-2.64-.35-5.57-1.08-8.74-.73-3.19-1.1-5.97-1.1-8.35,0-2.66.73-4.65,2.18-5.97,1.48-1.33,3.13-2.25,4.99-2.79.66-.25,1.62-.85,2.88-1.79,1.26-.92,2.02-1.91,2.28-2.98-.53,0-1.2.16-1.99.5-.79.33-2.38,1.09-4.77,2.28-3.71,1.99-6.02,3.95-6.96,5.88-.92,1.91-1.39,3.8-1.39,5.66,0,2.12.37,4.24,1.1,6.36s1.08,4.18,1.08,6.17c0,3.7-.82,7.15-2.47,10.33-1.67,3.19-3.79,5.98-6.36,8.35-2.59,2.38-5.41,4.28-8.47,5.67-3.04,1.39-5.95,2.08-8.73,2.08-3.85,0-7.62-.76-11.35-2.28-3.7-1.52-6.99-3.57-9.83-6.16-2.85-2.59-5.17-5.63-6.96-9.14-1.8-3.52-2.69-7.27-2.69-11.23,0-2.27.26-4.58.8-6.98.53-2.38,1.13-4.56,1.79-6.55.52-.53,1.15-1.2,1.89-1.99.72-.79,1.41-1.65,2.09-2.59.65-.92,1.18-1.88,1.59-2.88.39-.99.53-1.89.39-2.69-1.33,1.46-2.76,3.19-4.28,5.18s-3.35,2.98-5.47,2.98c-2.37,0-4.46-.57-6.26-1.68-1.78-1.14-3.61-2.22-5.47-3.29.13,1.46.73,2.66,1.8,3.58,1.05.92,2.22,1.73,3.48,2.38,1.26.68,2.52,1.16,3.77,1.5,1.26.32,2.23.49,2.9.49-.15,2.13-.38,4.14-.7,6.06-.34,1.93-.5,4.02-.5,6.27,0,5.56,1.55,10.81,4.67,15.71,3.11,4.9,7.53,9.2,13.22,12.93v4.37c0,4.1-1.23,8.05-3.67,11.82-2.46,3.79-5.52,7.11-9.16,9.95-3.64,2.85-7.62,5.13-11.92,6.86-4.31,1.72-8.25,2.58-11.83,2.58-3.19,0-6.36-.6-9.55-1.78-3.19-1.2-6.03-2.82-8.54-4.87-2.53-2.06-4.58-4.58-6.17-7.56-1.6-2.99-2.39-6.26-2.39-9.85,0-3.84.79-7.28,2.39-10.34,1.59-3.04,3.71-5.96,6.36-8.74-3.05-2.52-5.56-5.87-7.55-10.05-1.99-4.17-2.98-8.38-2.98-12.62,0-2.25.36-4.58,1.08-6.96.73-2.39,1.62-4.74,2.69-7.05,1.07-2.33,2.18-4.55,3.38-6.67s2.32-3.98,3.38-5.56c-1.06-3.86-2.49-7.59-4.27-11.23-1.79-3.66-2.68-7.59-2.68-11.85,0-4.88,1.05-9.8,3.17-14.71,2.12-4.9,5.05-9.3,8.75-13.22,3.71-3.91,7.96-7.08,12.73-9.54,4.76-2.45,9.88-3.68,15.31-3.68,3.97,0,8.25.86,12.82,2.59,4.58,1.72,8.85,4.05,12.83,6.96s7.25,6.33,9.84,10.24c2.59,3.9,3.88,8.05,3.88,12.43l.79,7.75c0-2.52.67-5.31,1.99-8.35,1.33-3.06,2.98-6.07,4.97-9.04,1.99-3,4.11-5.78,6.36-8.37,2.25-2.57,4.3-4.79,6.16-6.65,3.19-3.06,6.8-5.08,10.85-6.07,4.04-.98,8.18-1.49,12.42-1.49,2.91,0,6.13.44,9.65,1.3,3.51.86,6.79,2.18,9.83,3.98,3.05,1.78,5.57,4,7.56,6.65s2.98,5.78,2.98,9.35c0,1.33-.1,2.72-.29,4.18-.2,1.45-.47,2.84-.8,4.17-.34,1.33-.72,2.48-1.19,3.48-.47.99-.98,1.68-1.49,2.09,2.12,2.12,4.33,4.46,6.65,7.05Z"/>
    </g>
  </g>
</svg>