<?xml version="1.0" encoding="UTF-8"?>
<svg id="_레이어_2" data-name="레이어 2" xmlns="http://www.w3.org/2000/svg" viewBox="0 0 156.79 173.68">
  <defs>
    <style>
      .r1-1 {
        fill: #f87171;
      }

      .r1-1, .r1-2 {
        stroke-width: 0px;
      }

      .r1-2 {
        fill: #4ade80;
      }
    </style>
  </defs>
  <g id="_레이어_1-2" data-name="레이어 1">
    <g>
      <path class="r1-1" d="M156.53,142.02c0,5.03-.74,9.11-2.2,12.22-1.45,3.12-3.7,5.47-6.74,7.07l-6.77,6.75c-1.99,1.99-4.48,3.38-7.46,4.19-2.97.79-6.53,1.18-10.63,1.18-6.1,0-11.4-.16-15.9-.49-4.52-.34-8.25-1.13-11.25-2.39-2.98-1.26-5.29-3.08-6.96-5.47-1.65-2.38-2.68-5.63-3.07-9.74-4.26-.26-7.96-1.12-11.13-2.59-3.19-1.46-5.91-3.45-8.16-5.95-.19.41-.37.81-.56,1.2l-2.17-1.01c.53-1.06,1.04-2.19,1.54-3.38,1.99-4.78,3.91-10.88,5.76-18.29,1.32,2.66,2.81,5.1,4.48,7.35,1.65,2.26,3.51,4.17,5.56,5.78,2.06,1.58,4.44,2.84,7.16,3.77,2.71.92,5.8,1.39,9.25,1.39.13,4.11.92,7.36,2.38,9.74,1.46,2.39,3.61,4.21,6.47,5.47,2.85,1.26,6.49,2.05,10.92,2.39,4.45.33,9.65.49,15.62.49,7.15,0,12.52-1.43,16.1-4.27,3.57-2.85,5.37-7.98,5.37-15.41,0-3.32-.47-6.54-1.39-9.64-.92-3.12-2.35-5.91-4.27-8.35-1.93-2.46-4.27-4.42-7.06-5.87-2.78-1.46-5.97-2.19-9.54-2.19-2.53,0-4.68.37-6.48,1.1-1.78.73-3.41,1.75-4.87,3.08.67-1.46,1.1-2.98,1.3-4.58.21-1.59.3-2.79.3-3.58,0-1.59-.34-3.17-1-4.77-.66-1.59-1.55-3.14-2.68-4.66-.14-.19-.28-.38-.43-.57l2.12-.34c1.33,1.6,2.38,3.29,3.18,5.08.8,1.78,1.19,3.55,1.19,5.26,0,.41-.03.87-.09,1.39-.07.54-.17,1.13-.3,1.8,2.51-1.07,5.1-1.59,7.76-1.59,3.98,0,7.52.8,10.63,2.38,3.12,1.59,5.69,3.71,7.75,6.36,2.05,2.65,3.62,5.71,4.67,9.14,1.07,3.46,1.6,6.98,1.6,10.55Z"/>
      <path class="r1-2" d="M154.14,142.02c0,7.43-1.8,12.56-5.37,15.41-3.58,2.84-8.95,4.27-16.1,4.27-5.97,0-11.17-.16-15.62-.49-4.43-.34-8.07-1.13-10.92-2.39-2.86-1.26-5.01-3.08-6.47-5.47-1.46-2.38-2.25-5.63-2.38-9.74-3.45,0-6.54-.47-9.25-1.39-2.72-.93-5.1-2.19-7.16-3.77-2.05-1.61-3.91-3.52-5.56-5.78-1.67-2.25-3.16-4.69-4.48-7.35-1.85,7.41-3.77,13.51-5.76,18.29-.5,1.19-1.01,2.32-1.54,3.38-1.58,3.18-3.29,5.76-5.13,7.75-2.44,2.65-5.16,4.48-8.14,5.47-2.99,1-6.47,1.49-10.45,1.49-4.91,0-8.77-1.49-11.62-4.47-2.86-2.99-5.05-6.54-6.57-10.65-1.52-4.09-2.48-8.2-2.88-12.31s-.66-7.3-.79-9.55c.26-5.97,1.52-11.37,3.77-16.21s5.03-9.3,8.35-13.41c-1.72-.92-3.61-2.19-5.67-3.79-2.05-1.58-4.01-3.41-5.85-5.47-1.87-2.05-3.42-4.33-4.68-6.86-1.26-2.51-1.89-5.16-1.89-7.94,0-4.24.79-8.26,2.39-12.04,1.59-3.77,4.09-6.99,7.56-9.63-1.86-2.52-3.53-5.21-4.99-8.06-1.45-2.84-2.18-6.06-2.18-9.64s.97-6.96,2.88-10.15c1.92-3.17,4.35-5.95,7.26-8.35,2.92-2.37,6.14-4.27,9.65-5.66s6.79-2.09,9.84-2.09c4.9,0,9.14,1.09,12.73,3.29,3.58,2.18,6.15,6.13,7.75,11.83.66-5.7,2.72-10.12,6.17-13.22,3.44-3.13,7.94-4.68,13.51-4.68,3.44,0,7.2.7,11.24,2.09,4.03,1.39,7.79,3.32,11.23,5.76,3.45,2.46,6.3,5.4,8.55,8.85,2.24,3.45,3.38,7.23,3.38,11.33,0,1.19-.1,2.26-.29,3.18-.21.93-.51,2.06-.91,3.39,1.73.79,3.66,2.02,5.78,3.67,2.12,1.67,4.07,3.69,5.85,6.07,1.8,2.39,3.29,5.06,4.49,8.05,1.18,2.98,1.78,6.14,1.78,9.44,0,3.59-.26,7.23-.8,10.94-.53,3.72-1.55,7.13-3.07,10.24-1.54,3.12-3.66,5.66-6.38,7.65s-6.32,2.98-10.82,2.98h-1.99c-.67,0-1.33-.07-1.99-.2,1.32.54,2.68,1.36,4.08,2.5,1.22.99,2.33,2.12,3.34,3.41.15.19.29.38.43.57,1.13,1.52,2.02,3.07,2.68,4.66.66,1.6,1,3.18,1,4.77,0,.79-.09,1.99-.3,3.58-.2,1.6-.63,3.12-1.3,4.58,1.46-1.33,3.09-2.35,4.87-3.08,1.8-.73,3.95-1.1,6.48-1.1,3.57,0,6.76.73,9.54,2.19,2.79,1.45,5.13,3.41,7.06,5.87,1.92,2.44,3.35,5.23,4.27,8.35.92,3.1,1.39,6.32,1.39,9.64ZM79.77,57.61c1.33-.71,2.59-1.41,3.79-2.09-2.91-1.31-5.74-3.33-8.45-6.05l-1.73-1.84c-1.92-2.14-3.49-4.35-4.74-6.62-.39,1.86-1.18,3.59-2.38,5.17-1.19,1.59-2.55,3.01-4.08,4.28-1.52,1.26-3.09,2.36-4.67,3.28-1.59.92-2.91,1.59-3.98,1.99,2.65,1.46,4.61,3.38,5.87,5.76,1.26,2.4,1.96,5.05,2.09,7.96v2.78c0,.8-.13,1.65-.41,2.58,1.2-.39,2.59-.59,4.18-.59,1.46,0,2.81.13,4.08.39,1.26.28,2.36.54,3.28.8-.27-1.06-.4-1.99-.4-2.79v-2.38c0-2.39.4-4.38,1.19-5.97.8-1.58,1.74-2.91,2.79-3.98,1.07-1.05,2.25-1.94,3.57-2.68Z"/>
      <path class="r1-1" d="M138.04,64.47c0,3.06-.18,6.13-.5,9.25-.34,3.11-.96,6.14-1.89,9.05s-2.22,5.56-3.87,7.94c-1.67,2.4-3.82,4.32-6.47,5.78l-5.17,5.16-2.12.34c-1.01-1.29-2.12-2.42-3.34-3.41-1.4-1.14-2.76-1.96-4.08-2.5.66.13,1.32.2,1.99.2h1.99c4.5,0,8.1-.99,10.82-2.98s4.84-4.53,6.38-7.65c1.52-3.11,2.54-6.52,3.07-10.24.54-3.71.8-7.35.8-10.94,0-3.3-.6-6.46-1.78-9.44-1.2-2.99-2.69-5.66-4.49-8.05-1.78-2.38-3.73-4.4-5.85-6.07-2.12-1.65-4.05-2.88-5.78-3.67.4-1.33.7-2.46.91-3.39.19-.92.29-1.99.29-3.18,0-4.1-1.14-7.88-3.38-11.33-2.25-3.45-5.1-6.39-8.55-8.85-3.44-2.44-7.2-4.37-11.23-5.76-4.04-1.39-7.8-2.09-11.24-2.09-5.57,0-10.07,1.55-13.51,4.68-3.45,3.1-5.51,7.52-6.17,13.22-1.6-5.7-4.17-9.65-7.75-11.83-3.59-2.2-7.83-3.29-12.73-3.29-3.05,0-6.33.7-9.84,2.09s-6.73,3.29-9.65,5.66c-2.91,2.4-5.34,5.18-7.26,8.35-1.91,3.19-2.88,6.57-2.88,10.15s.73,6.8,2.18,9.64c1.46,2.85,3.13,5.54,4.99,8.06-3.47,2.64-5.97,5.86-7.56,9.63-1.6,3.78-2.39,7.8-2.39,12.04,0,2.78.63,5.43,1.89,7.94,1.26,2.53,2.81,4.81,4.68,6.86,1.84,2.06,3.8,3.89,5.85,5.47,2.06,1.6,3.95,2.87,5.67,3.79-3.32,4.11-6.1,8.57-8.35,13.41s-3.51,10.24-3.77,16.21c.13,2.25.39,5.44.79,9.55s1.36,8.22,2.88,12.31c1.52,4.11,3.71,7.66,6.57,10.65,2.85,2.98,6.71,4.47,11.62,4.47,3.98,0,7.46-.49,10.45-1.49,2.98-.99,5.7-2.82,8.14-5.47,1.84-1.99,3.55-4.57,5.13-7.75l2.17,1.01c-2.95,6.09-6.46,10.34-10.57,12.71l-6.16,6.17c-2.53,2.5-5.34,4.23-8.47,5.16-3.1.92-6.65,1.39-10.63,1.39-5.31,0-9.51-1.59-12.62-4.77-3.12-3.18-5.47-6.9-7.05-11.14-1.61-4.24-2.63-8.51-3.09-12.81-.47-4.31-.76-7.66-.89-10.05.25-5.97,1.42-11.29,3.47-16,2.06-4.71,4.6-9.05,7.66-13.03-1.86-1.2-3.79-2.62-5.76-4.27-1.99-1.65-3.82-3.54-5.47-5.66-1.67-2.12-3.06-4.42-4.18-6.86-1.13-2.46-1.69-5.08-1.69-7.87,0-3.83.69-7.59,2.08-11.23s3.82-7.18,7.27-10.63c-1.73-2.52-3.25-5.21-4.58-8.06-1.33-2.84-1.99-6-1.99-9.45s.76-6.42,2.3-9.33c1.52-2.91,3.47-5.57,5.85-7.96l5.16-5.16c1.61-2.4,3.5-4.58,5.68-6.57,2.19-1.99,4.53-3.68,7.06-5.07,2.51-1.39,5.1-2.49,7.75-3.28,2.65-.8,5.18-1.2,7.56-1.2,3.98,0,7.62.7,10.93,2.09,3.32,1.39,6.1,3.75,8.35,7.07l1.99-1.99C69.64,3.56,75.94.25,84.55.25c3.72,0,7.71.77,12.04,2.29,4.3,1.53,8.28,3.61,11.92,6.27,3.64,2.65,6.7,5.82,9.14,9.54,2.46,3.71,3.69,7.82,3.69,12.32,0,2.13-.27,3.98-.81,5.58,1.99,1.18,4.02,2.75,6.07,4.66,2.06,1.92,3.95,4.11,5.66,6.57,1.74,2.44,3.13,5.09,4.18,7.94,1.07,2.87,1.6,5.88,1.6,9.05Z"/>
      <path class="r1-1" d="M83.56,55.52c-1.2.68-2.46,1.38-3.79,2.09-1.32.74-2.5,1.63-3.57,2.68-1.05,1.07-1.99,2.4-2.79,3.98-.79,1.59-1.19,3.58-1.19,5.97v2.38c0,.8.13,1.73.4,2.79-.92-.26-2.02-.52-3.28-.8-1.27-.26-2.62-.39-4.08-.39-1.59,0-2.98.2-4.18.59.28-.93.41-1.78.41-2.58v-2.78c-.13-2.91-.83-5.56-2.09-7.96-1.26-2.38-3.22-4.3-5.87-5.76,1.07-.4,2.39-1.07,3.98-1.99,1.58-.92,3.15-2.02,4.67-3.28,1.53-1.27,2.89-2.69,4.08-4.28,1.2-1.58,1.99-3.31,2.38-5.17,1.25,2.27,2.82,4.48,4.74,6.62.55.62,1.13,1.23,1.73,1.84,2.71,2.72,5.54,4.74,8.45,6.05Z"/>
    </g>
  </g>
</svg>