<?xml version="1.0" encoding="UTF-8"?>
<svg id="_레이어_2" data-name="레이어 2" xmlns="http://www.w3.org/2000/svg" viewBox="0 0 149.72 176.97">
  <defs>
    <style>
      .s1-1 {
        fill: #facc15;
      }

      .s1-1, .s1-2 {
        stroke-width: 0px;
      }

      .s1-2 {
        fill: #38bdf8;
      }
    </style>
  </defs>
  <g id="_레이어_1-2" data-name="레이어 1">
    <g>
      <path class="s1-1" d="M12.83,47.73c3.11-8.37,8.64-16.5,16.6-24.47,3.45-4.64,7.56-8.41,12.33-11.33,4.77-2.91,10.34-4.38,16.7-4.38,2.25,0,4.37.4,6.36,1.2s3.85,1.73,5.57,2.78c4.24-3.58,9.14-6.39,14.71-8.45s10.94-3.09,16.12-3.09c6.36,0,12.33,1.57,17.9,4.68,5.57,3.12,10.44,7.02,14.61,11.73,4.17,4.71,7.49,9.77,9.93,15.21,2.46,5.44,3.69,10.53,3.69,15.31,0,2.39-.4,4.98-1.2,7.77s-1.93,5.57-3.38,8.35c-1.46,2.78-3.16,5.4-5.06,7.85-1.93,2.46-4.08,4.48-6.47,6.07l-4.37,4.37c3.71,1.86,6.99,3.98,9.84,6.36,2.85,2.39,5.24,5.24,7.17,8.56,1.91,3.32,3.37,7.18,4.37,11.63.99,4.43,1.49,9.71,1.49,15.81,0,5.7-1.68,11.16-5.06,16.39-3.38,5.24-7.65,9.79-12.83,13.62l-4.37,4.37c-4.51,4.51-9.71,8.16-15.61,10.94-5.89,2.78-11.83,4.17-17.8,4.17-10.21,0-19.61-2.78-28.24-8.35-4.63,4.64-8.87,7.82-12.72,9.55-3.85,1.72-7.69,2.59-11.54,2.59-4.9,0-9.84-.84-14.81-2.49s-9.45-4.01-13.43-7.05c-3.96-3.06-7.18-6.73-9.64-11.04-2.44-4.3-3.67-9.11-3.67-14.42,0-4.37.76-8.32,2.28-11.83,1.54-3.51,3.62-6.6,6.28-9.26l5.76-5.76c1.72-2.51,3.74-4.71,6.07-6.55,2.31-1.86,4.87-3.51,7.65-4.98-5.57-3.83-10.27-8.32-14.13-13.41-3.83-5.1-5.76-11.44-5.76-19s1.55-15.1,4.68-23.45Z"/>
      <path class="s1-2" d="M145.74,107.57c1.07,4.51,1.6,9.88,1.6,16.11,0,4.76-1.32,9.4-3.98,13.92-2.65,4.5-6.06,8.54-10.24,12.12-4.17,3.57-8.85,6.44-14.01,8.56-5.18,2.12-10.21,3.17-15.11,3.17-7.69,0-14.79-1.59-21.28-4.78-6.51-3.17-12.46-7.62-17.9-13.31,0,1.2.29,2.28.89,3.28.6.99,1.36,1.96,2.3,2.88.92.92,1.85,1.83,2.78,2.69s1.78,1.76,2.58,2.68c-2.66,3.45-5.89,6.04-9.74,7.76-3.84,1.71-7.88,2.58-12.12,2.58-4.78,0-9.52-.77-14.23-2.29s-8.94-3.74-12.71-6.65c-3.79-2.92-6.87-6.43-9.26-10.55-2.38-4.1-3.58-8.68-3.58-13.71,0-5.31,1.2-9.95,3.58-13.93,2.39-3.96,5.47-7.25,9.26-9.84,3.77-2.59,8.04-4.5,12.81-5.76s9.61-1.89,14.51-1.89c3.98,0,8,.82,12.04,2.49,4.05,1.65,7.75,3.83,11.14,6.55,3.38,2.72,6.26,5.78,8.64,9.15,2.39,3.38,3.91,6.86,4.57,10.45.41,0,.7-.28.89-.81.22-.52.31-.99.31-1.39,0-3.3-1.29-6.69-3.88-10.13-2.59-3.45-5.86-6.64-9.84-9.55s-8.45-5.31-13.43-7.15c-4.97-1.86-9.84-2.78-14.61-2.78-3.58-1.99-7.02-4.19-10.34-6.57s-6.26-5.03-8.85-7.96c-2.57-2.92-4.66-6.15-6.26-9.74-1.59-3.58-2.38-7.56-2.38-11.93,0-5.57.79-11.36,2.38-17.39,1.6-6.04,4.01-11.57,7.26-16.61,3.26-5.03,7.28-9.17,12.12-12.42s10.45-4.87,16.81-4.87c2.25,0,4.37.5,6.36,1.49,1.99.98,3.85,2.02,5.57,3.07,3.58-3.7,8.22-6.65,13.91-8.83,5.7-2.2,11.35-3.29,16.91-3.29,5.96,0,11.59,1.49,16.9,4.47,5.3,2.99,9.95,6.7,13.91,11.13,3.98,4.45,7.14,9.25,9.45,14.42s3.48,10.01,3.48,14.51c0,2.78-.6,5.97-1.78,9.55-1.2,3.57-2.86,6.95-4.98,10.14-2.12,3.17-4.6,5.83-7.45,7.95-2.86,2.13-5.87,3.18-9.06,3.18-3.7,0-7.72-.5-12.02-1.48-4.3-1.01-8.45-2.59-12.43-4.78-3.98-2.18-7.65-5.06-11.03-8.65-3.38-3.58-5.94-7.88-7.66-12.92-.13.67-.22,1.27-.3,1.78-.07.54-.1,1.14-.1,1.8,0,4.37,1.7,8.28,5.08,11.73s7.44,6.36,12.22,8.75c4.77,2.38,9.64,4.24,14.62,5.57,4.97,1.33,9.05,2.12,12.22,2.38,4.11,1.73,7.72,3.7,10.84,5.97,3.11,2.25,5.73,4.97,7.85,8.14,2.12,3.19,3.72,7.04,4.77,11.54Z"/>
    </g>
  </g>
</svg>