<?xml version="1.0" encoding="UTF-8"?>
<svg id="_레이어_2" data-name="레이어 2" xmlns="http://www.w3.org/2000/svg" viewBox="0 0 231.36 234.37">
  <defs>
    <style>
      .s2-1 {
        fill: #38bdf8;
        stroke-width: 0px;
      }
    </style>
  </defs>
  <g id="_레이어_1-2" data-name="레이어 1">
    <path class="s2-1" d="M109.59,221.08c-3.47,5.72-8.35,9.69-14.65,11.93-6.27,2.26-12.18,1.69-17.72-1.68-8.48-5.16-12.21-12.72-11.2-22.7-8.43,7.23-16.54,8.5-24.28,3.8-4.79-2.91-7.83-7.04-9.13-12.36-1.31-5.36-.87-10.64,1.3-15.88-8.39,6.76-16.39,7.85-23.93,3.27-5.54-3.36-8.76-8.25-9.7-14.62-.92-6.35.36-12.41,3.82-18.11,3.15-5.18,7.75-9,13.81-11.52,6.07-2.48,11.59-2.23,16.56.79s8.14,7.29,9.46,12.78c1.36,5.48.81,11.03-1.58,16.64,8.21-6.87,15.99-8.06,23.38-3.58s10.98,11.85,9.71,21.4c8.72-7.3,17.42-8.33,26.11-3.06,5.51,3.35,9.08,8.29,10.69,14.82,1.58,6.54.7,12.54-2.66,18.07ZM211.79,54.12c-2.61,4.3-6.61,7.08-12.03,8.28-5.4,1.18-10.21.52-14.46-2.07-4.61-2.8-7.77-6.54-9.45-11.23-1.7-4.7-1.57-9.49.37-14.35-3.16,4.39-7.47,7.02-12.92,7.87-5.42.86-10.37-.08-14.78-2.76-3.33-2.02-5.95-4.36-7.85-7.02,2.03,7,1.41,13.25-1.93,18.74-3.67,6.03-8.77,9.77-15.33,11.18-6.52,1.4-12.95.21-19.2-3.59-5.72-3.47-9.67-8.59-11.86-15.37-2.21-6.76-1.62-12.91,1.73-18.42,3.82-6.28,8.99-10.13,15.54-11.57,6.55-1.44,12.99-.27,19.24,3.53,3.69,2.24,6.7,5.21,8.99,8.89-1.63-6.04-.76-11.83,2.59-17.35,2.8-4.61,7.1-7.43,12.91-8.46,5.79-1.01,10.99-.13,15.6,2.67,4.79,2.91,8.14,6.98,10.04,12.17,1.88,5.18,1.81,10.31-.26,15.34,3.05-4.16,7.11-6.78,12.19-7.88,5.08-1.11,9.74-.37,14,2.22,5.15,3.13,8.38,7.46,9.69,13.01s.35,10.94-2.84,16.18ZM131.58,98.88c-3.15,5.18-7.71,8.32-13.71,9.48-5.99,1.14-11.58.14-16.74-2.99-5.15-3.13-8.08-7.81-8.72-13.99-.66-6.22.6-11.9,3.74-17.05,3.26-5.36,7.83-8.62,13.74-9.83,5.9-1.19,11.51-.18,16.87,3.07,4.97,3.02,7.83,7.65,8.59,13.91.72,6.26-.52,12.07-3.77,17.4ZM152.53,144.18c-3.26,5.36-8.1,8.76-14.56,10.26-6.49,1.51-12.4.63-17.74-2.61-5.9-3.58-9.38-8.75-10.48-15.46-1.09-6.73.21-13.12,3.92-19.22,3.24-5.33,8.13-8.81,14.64-10.4,6.51-1.59,12.37-.83,17.55,2.31,6.08,3.69,9.65,8.92,10.75,15.62,1.09,6.73-.28,13.24-4.08,19.49ZM156.67,197.82c-3.93,6.46-9.45,10.78-16.61,12.99-7.14,2.22-13.87,1.43-20.13-2.37s-10.03-9.46-11.32-16.92c-1.26-7.46.01-14.32,3.82-20.58,3.93-6.46,9.44-10.87,16.55-13.24,7.13-2.35,13.82-1.65,20.1,2.17,6.44,3.91,10.3,9.62,11.57,17.07,1.29,7.47-.05,14.43-3.97,20.89ZM228.75,81.07c-2.24,3.69-5.39,5.94-9.41,6.76-4.05.84-7.81.18-11.33-1.95s-5.44-5.34-5.88-9.64c-.41-4.29.44-8.18,2.57-11.69s5.19-5.66,9.25-6.49c4.04-.81,7.81-.18,11.3,1.94,3.51,2.13,5.49,5.31,5.96,9.51.49,4.21-.33,8.06-2.47,11.57Z"/>
  </g>
</svg>